<svg xmlns="http://www.w3.org/2000/svg" viewBox="0 0 120 120" width="120" height="120">
  <defs>
    <linearGradient id="g" x1="0%" y1="0%" x2="100%" y2="100%">
      <stop offset="0%" style="stop-color:#00979D"/>
      <stop offset="100%" style="stop-color:#006577"/>
    </linearGradient>
  </defs>
  <circle cx="60" cy="60" r="56" fill="url(#g)"/>
  <rect x="30" y="35" width="60" height="50" rx="4" fill="#1a1a2e" stroke="#ecf0f1" stroke-width="2"/>
  <circle cx="40" cy="45" r="3" fill="#00d2ff"/>
  <circle cx="50" cy="45" r="3" fill="#00d2ff"/>
  <circle cx="60" cy="45" r="3" fill="#ff6b6b"/>
  <circle cx="70" cy="45" r="3" fill="#00d2ff"/>
  <circle cx="80" cy="45" r="3" fill="#00d2ff"/>
  <rect x="35" y="55" width="8" height="8" rx="1" fill="#ecf0f1"/>
  <rect x="47" y="55" width="8" height="8" rx="1" fill="#ecf0f1"/>
  <rect x="59" y="55" width="8" height="8" rx="1" fill="#ecf0f1"/>
  <rect x="71" y="55" width="8" height="8" rx="1" fill="#ecf0f1"/>
  <rect x="35" y="67" width="8" height="8" rx="1" fill="#ecf0f1"/>
  <rect x="47" y="67" width="8" height="8" rx="1" fill="#ecf0f1"/>
  <rect x="59" y="67" width="8" height="8" rx="1" fill="#ecf0f1"/>
  <rect x="71" y="67" width="8" height="8" rx="1" fill="#ecf0f1"/>
  <circle cx="85" cy="75" r="2" fill="#00ff88"/>
</svg>
